<?xml version="1.0" encoding="UTF-8" standalone="no"?>
<!-- Created with Inkscape (http://www.inkscape.org/) -->

<svg
   version="1.1"
   id="svg1"
   width="1536"
   height="1024"
   viewBox="0 0 1536 1024"
   sodipodi:docname="logo.svg"
   inkscape:version="1.4.2 (f4327f4, 2025-05-13)"
   xmlns:inkscape="http://www.inkscape.org/namespaces/inkscape"
   xmlns:sodipodi="http://sodipodi.sourceforge.net/DTD/sodipodi-0.dtd"
   xmlns="http://www.w3.org/2000/svg"
   xmlns:svg="http://www.w3.org/2000/svg">
  <defs
     id="defs1" />
  <sodipodi:namedview
     id="namedview1"
     pagecolor="#ffffff"
     bordercolor="#000000"
     borderopacity="0.25"
     inkscape:showpageshadow="2"
     inkscape:pageopacity="0.0"
     inkscape:pagecheckerboard="0"
     inkscape:deskcolor="#d1d1d1"
     inkscape:zoom="0.78808594"
     inkscape:cx="735.3259"
     inkscape:cy="514.53779"
     inkscape:window-width="1920"
     inkscape:window-height="1009"
     inkscape:window-x="-8"
     inkscape:window-y="-8"
     inkscape:window-maximized="1"
     inkscape:current-layer="g2" />
  <g
     inkscape:groupmode="layer"
     inkscape:label="Image"
     id="g1">
    <g
       id="g2"
       transform="matrix(1.2517387,0,0,1.2677519,-92.222531,-130.47756)">
      <path
         style="fill:#606060;fill-opacity:1"
         d="m 876.5,149 c -0.33992,-0.55 -0.14148,-1 0.44098,-1 0.58246,0 1.05902,0.45 1.05902,1 0,0.55 -0.19844,1 -0.44098,1 -0.24254,0 -0.7191,-0.45 -1.05902,-1 z"
         id="path4"
         sodipodi:nodetypes="sssss" />
      <path
         style="fill:#333333;fill-opacity:1"
         d="m 506.87487,872.77754 c -0.26316,-1.7875 -0.98575,-9.775 -1.60577,-17.75 -3.69355,-47.50866 -11.57298,-80.64452 -27.94052,-117.5 -10.23359,-23.04341 -21.01114,-41.207 -36.99077,-62.34118 -17.2358,-22.79556 -29.34978,-39.89813 -35.52816,-50.15882 -20.87098,-34.66134 -31.90812,-67.77402 -34.10714,-102.32541 -0.39448,-6.19815 -1.06355,-10.45084 -1.56528,-9.94911 -2.74917,2.74917 -7.43408,33.37626 -8.53161,55.77452 -0.92216,18.8191 -2.0403,14.84321 -2.98239,-10.60474 -1.20833,-32.63969 3.19253,-57.04883 15.66684,-86.89526 8.08966,-19.35558 20.75874,-40.79108 30.86288,-52.21859 1.86463,-2.10885 3.16992,-4.05458 2.90065,-4.32385 -0.51062,-0.51062 -15.07977,7.27115 -20.29089,10.83791 -10.26345,7.02483 -20.81046,18.38867 -29.4271,31.70612 -10.82861,16.73618 -22.91044,46.28831 -26.57337,64.99841 -2.58474,13.20273 -3.01884,32.36935 -1.05317,46.5 3.95622,28.44016 13.53554,58.21594 40.91016,127.16274 16.1421,40.65615 22.39477,60.6197 26.64225,85.06352 3.06223,17.62285 5.01666,40.74818 4.87517,57.68435 l -0.12606,15.08939 -1.36572,-14 c -2.22812,-22.84035 -8.14947,-61.12343 -11.44579,-74 -6.524,-25.48501 -14.89168,-47.89894 -31.91925,-85.5 -22.31328,-49.27319 -30.66163,-74.23315 -36.12274,-108 -2.66726,-16.49212 -3.17126,-45.70226 -1.018,-59 5.74401,-35.47282 31.97642,-77.90822 59.84006,-96.80151 13.30927,-9.02453 31.75386,-15.88602 50.28356,-18.70577 5.5364,-0.8425 9.94799,-3.31475 26.26324,-14.71793 40.0053,-27.9608 85.31947,-71.93596 138.23744,-134.15258 16.05591,-18.87723 11.12994,-11.71966 -17.22311,25.02568 -28.3826,36.78362 -54.50919,65.64311 -79.85573,88.2088 -20.67663,18.40814 -27.1973,23.175 -67.68473,49.48017 -33.05295,21.4749 -49.98704,56.51605 -49.85491,103.16314 0.12516,44.19156 18.41929,88.77565 55.5995,135.5 4.15772,5.225 9.46272,12.0613 11.78889,15.19177 2.32618,3.13047 4.66536,5.57266 5.19818,5.42708 1.04056,-0.28431 2.39657,-6.46232 8.54379,-38.92563 2.16697,-11.44374 5.71567,-28.54374 7.88601,-38 8.51688,-37.10853 13.04372,-65.61021 13.08102,-82.36022 l 0.0204,-9.16699 8.75,-6.77479 c 15.45373,-11.96521 45.67486,-43.41579 73.07574,-76.04859 2.92915,-3.48845 5.57175,-6.34263 5.87244,-6.34263 0.30069,0 0.10163,0.5625 -0.44235,1.25 -22.42333,28.3392 -34.00015,44.39235 -47.72161,66.17383 -12.40038,19.6844 -29.49567,57.09362 -43.11168,94.34027 l -4.48331,12.2641 3.03038,21.4184 c 2.46713,17.43727 3.0304,24.75962 3.0304,39.39415 0,19.50371 -1.88851,37.992 -5.1361,50.2819 l -2.01428,7.62266 4.08245,8.11958 c 6.74889,13.42289 14.26675,34.1794 19.96954,55.13511 3.2555,11.96282 7.02149,35.13925 8.60839,52.97722 1.66307,18.69413 3.08996,54.02278 2.18193,54.02278 -0.33072,0 -0.81661,-1.4625 -1.07977,-3.25 z m -37.61489,-187.5 c 2.13602,-13.34586 2.4046,-35.33955 0.60056,-49.17784 -2.51162,-19.26589 -1.97454,-20.75134 -8.58754,23.75151 l -2.87144,19.32368 3.93058,6.08136 c 2.16181,3.34475 3.93057,6.4616 3.93057,6.92633 0,0.46473 0.3953,0.84496 0.87844,0.84496 0.48314,0 1.43661,-3.4875 2.11883,-7.75 z m -152.16101,178.75 c 2.66453,-5.775 7.81775,-17.7 11.45158,-26.5 3.63384,-8.8 10.06905,-24.325 14.30047,-34.5 10.29736,-24.76135 12.41169,-30.14973 12.41169,-31.63125 0,-1.81737 -21.76617,-49.79968 -22.70741,-50.05724 -0.43592,-0.11928 -3.54596,3.69933 -6.91119,8.48581 -11.65897,16.58294 -26.41317,34.01761 -40.61379,47.99229 -12.16214,11.96863 -32.57616,30.2241 -39.30366,35.14774 -1.43327,1.04897 14.3125,-15.75135 19.58742,-20.89926 4.18679,-4.08598 23.77501,-27.95716 32.44418,-39.53809 20.4608,-27.3331 29.50108,-40.81186 28.84031,-43 -0.33217,-1.1 -3.91573,-9.78512 -7.96347,-19.30026 -4.04773,-9.51515 -7.6362,-18.40265 -7.97436,-19.75 -0.57003,-2.27117 -3.39803,-3.56535 -3.39803,-1.55505 0,1.65493 -19.43816,20.52783 -30.01664,29.14377 -12.49867,10.17988 -16.71044,13.24751 -32.48336,23.65919 -15.14628,9.99803 -16.00238,10.46225 -10.50758,5.69772 20.39877,-17.68775 49.09394,-48.28713 64.59262,-68.87899 l 5.73751,-7.62296 -5.24281,-16.69671 c -6.62172,-21.0881 -6.78342,-21.48592 -8.3307,-20.49548 -0.68697,0.43974 -5.07404,3.33308 -9.74904,6.42963 -16.79802,11.12641 -45.84547,25.6823 -59.5,29.81588 -13.54925,4.10172 -15.23883,5.79167 -21.46808,21.47291 -3.10901,7.82648 -8.34471,28.40802 -9.81439,38.58035 -0.87509,6.05694 -0.94832,6.19326 -1.07429,2 -0.40914,-13.61818 5.59399,-35.93197 14.49466,-53.87707 l 6.63495,-13.37708 -1.28818,-6.82708 c -1.84395,-9.77255 -0.77486,-19.60441 4.395,-40.41877 7.33505,-29.53161 7.90751,-32.91822 7.94462,-47 0.052,-19.74351 -3.11349,-29.75879 -17.99941,-56.94749 -12.06768,-22.04127 -13.15393,-24.25923 -15.32739,-31.29606 -1.12487,-3.64192 -2.31843,-10.47699 -2.65236,-15.18906 -0.51272,-7.23502 -0.20944,-10.12255 1.95016,-18.56739 3.70088,-14.47182 4.00562,-18.00367 2.30763,-26.74447 -1.92723,-9.92087 -4.16259,-14.88016 -11.72826,-26.01984 -7.57121,-11.14784 -10.65876,-18.56294 -11.50051,-27.61981 -0.81653,-8.78555 1.12127,-15.23279 7.09806,-23.61588 5.71079,-8.00999 12.49841,-14.20505 21.27953,-19.42182 3.98654,-2.36836 7.24826,-4.72275 7.24826,-5.23198 0,-0.50923 -0.94992,-2.78787 -2.11093,-5.06365 -2.65331,-5.20092 -3.60614,-14.63718 -1.8951,-18.768 1.94788,-4.70258 6.49849,-8.01455 11.01191,-8.01455 h 3.85243 l -0.50555,-4.59734 c -1.10633,-10.06079 3.60634,-21.19769 12.60005,-29.77624 6.5182,-6.21731 11.83019,-9.18042 19.26416,-10.74586 8.73757,-1.83995 8.97395,-2.81698 0.68958,-2.85015 -9.2219,-0.0369 -17.02131,2.41536 -24.01879,7.55198 -8.39711,6.16404 -11.92158,12.35376 -13.9036,24.41761 -0.86251,5.2498 -0.88615,5.14656 -0.51953,-2.26945 0.6242,-12.6267 8.07443,-31.14981 13.57699,-33.75575 0.80211,-0.37987 2.86116,-1.41977 4.57567,-2.31088 4.38544,-2.27932 14.05858,-4.66647 18.84281,-4.65006 2.22194,0.008 8.3149,1.47142 13.5399,3.25287 8.13588,2.77391 9.72131,3.68125 11.04126,6.31889 1.29398,2.58576 1.87273,2.93198 3.60729,2.158 1.13632,-0.50704 2.74731,-2.34428 3.57997,-4.08276 2.50051,-5.22069 14.42237,-17.28268 22.26922,-22.53098 10.42355,-6.97169 15.85166,-8.6376 28.00226,-8.594 11.37146,0.0408 16.76389,1.78049 29.74076,9.59483 8.95987,5.39541 25.16038,20.95649 22.4864,21.59885 -1.04683,0.25148 -4.56313,-1.64264 -8.58634,-4.62517 -10.57234,-7.8376 -20.95862,-12.57879 -32.14082,-14.67185 -6.64352,-1.24352 -20.53037,-0.71048 -26.57281,1.01997 -10.5955,3.03438 -25.61066,11.88522 -34.72321,20.46795 -3.47755,3.27536 -3.74168,3.89695 -3.14829,7.40916 0.35625,2.10861 1.26,5.01402 2.00835,6.45645 0.74834,1.44243 1.19811,2.78512 0.99948,2.98374 -0.19863,0.19863 -3.21917,-1.1106 -6.71233,-2.9094 -5.64402,-2.90638 -7.24195,-3.26693 -14.35119,-3.23813 -6.69265,0.0271 -8.97695,0.49868 -13.97819,2.88564 -11.23354,5.36146 -20.20402,17.68764 -22.70938,31.20456 -2.09792,11.31868 2.44744,19.24442 14.0123,24.43322 7.00662,3.14365 7.57024,3.30238 6.69447,1.88537 -0.32936,-0.53292 1.3207,-0.10954 3.6668,0.94084 5.01148,2.24371 5.93719,1.87878 3.10957,-1.22585 -3.75972,-4.12807 -4.62346,-7.05183 -4.64908,-15.73714 -0.029,-9.82844 1.14135,-12.77764 7.2665,-18.31134 5.20975,-4.70671 8.25551,-5.92202 21.54433,-8.59659 18.35434,-3.69407 29.09624,-2.87979 46.04268,3.49022 21.46815,8.06969 28.37357,9.44631 37.60866,7.49739 2.96524,-0.62577 10.40207,-3.6017 16.52629,-6.61318 12.76836,-6.27863 17.58664,-6.99736 21.19074,-3.16097 3.02592,3.22095 2.71292,4.01544 -0.85506,2.17036 -1.66615,-0.8616 -3.44194,-1.31156 -3.9462,-0.99991 -0.50427,0.31166 -0.67722,3.14255 -0.38435,6.29087 0.60509,6.50456 3.22902,10.40769 5.6474,8.4006 0.7681,-0.63746 1.64719,-0.90837 1.95354,-0.60201 1.13306,1.13305 5.95664,-6.62916 6.46233,-10.39932 1.01424,-7.56176 -4.56961,-12.19362 -15.03031,-12.46779 -5.59771,-0.14671 -7.00094,0.2798 -15.05616,4.57625 -17.81725,9.50327 -24.63311,9.78323 -39.19822,1.61004 -21.19956,-11.89609 -24.22317,-12.77692 -37.90311,-11.04181 -4.39144,0.55699 -8.13196,0.86519 -8.31225,0.6849 -0.1803,-0.18029 3.0514,-2.19318 7.18156,-4.47307 13.40119,-7.39762 19.42092,-6.69555 39.38428,4.5933 16.81352,9.50769 26.6624,10.67858 37.46052,4.45352 11.0713,-6.38254 14.02765,-7.45613 20.40191,-7.40885 9.39014,0.0696 14.14665,3.70168 16.53316,12.62458 1.09568,4.0966 0.95507,5.20793 -1.56098,12.338 -1.83006,5.18607 -2.90508,10.54121 -3.17898,15.83589 -0.54187,10.47447 -3.13842,28.57157 -5.0935,35.5 -2.1578,7.64683 -6.36767,14.68635 -12.02407,20.10599 -5.31744,5.09488 -21.21954,16.15917 -25.6223,17.82737 -5.2924,2.00529 -11.82407,1.18437 -23.6849,-2.97678 -10.22832,-3.58842 -13.91535,-4.30666 -33.34236,-6.49515 -27.6384,-3.11352 -36.16987,-4.99635 -52.33812,-11.55062 -10.52579,-4.26693 -10.72885,-4.19711 -10.01534,3.44368 0.81103,8.68515 3.44404,15.08051 9.50497,23.08682 7.62576,10.07339 9.50195,15.86298 8.93077,27.55869 -0.39991,8.18854 -1.09197,11.16787 -5.01323,21.58174 -6.56819,17.44348 -7.72669,21.92927 -7.72669,29.91826 0,12.04866 3.09007,19.9608 14.36712,36.78708 9.4043,14.03198 10.08861,17.51206 6.64855,33.81113 -4.52605,21.44447 -1.21716,36.49115 10.80516,49.13486 4.63066,4.87 13.64169,11.76693 15.37382,11.76693 0.28576,0 0.76864,-3.4875 1.07306,-7.75 1.13225,-15.85358 9.85781,-38.75579 20.28118,-53.23259 6.62138,-9.19629 9.74548,-12.44579 7.22731,-7.51741 -19.91314,38.97248 -23.1055,76.65587 -10.66822,125.93024 5.72242,22.67123 15.57071,48.68716 30.87812,81.56976 14.6648,31.50219 22.6172,51.00526 28.54259,70 4.319,13.8452 17.0073,67.79734 16.14676,68.65788 -0.21442,0.21442 -2.29864,-5.13339 -4.63161,-11.88401 -5.58639,-16.16464 -17.20088,-45.77552 -17.95179,-45.76771 -0.32563,0.003 -3.02795,5.29089 -6.00515,11.75 -8.83247,19.16222 -20.73706,41.71461 -30.74481,58.24384 -12.30174,20.31807 -14.41025,22.79697 -8.50583,10 z M 238.26271,633.33339 c 7.425,-4.18662 17.19196,-9.99466 21.70435,-12.90676 8.4193,-5.43344 25.29565,-19.15101 25.29565,-20.56102 0,-0.93583 -3.09868,0.17552 -9.68753,3.47445 -8.44609,4.22883 -26.86092,9.42781 -39.49995,11.15187 l -4.68748,0.6394 -5.74804,10.19811 c -8.31001,14.74349 -9.3717,16.89765 -8.79111,17.83707 0.76378,1.23582 6.25609,-1.28619 21.41411,-9.83312 z m -13.25383,-16.05585 c 5.32577,-11.54552 12.57062,-32.6432 14.85185,-43.25 1.28057,-5.95413 1.83918,-12.84295 1.86505,-23 0.0315,-12.36574 -0.29807,-15.56577 -2.23904,-21.74073 -2.74558,-8.73477 -7.40192,-16.89604 -14.82392,-25.98226 -28.27499,-34.61499 -30.52608,-44.91339 -16.34527,-74.77701 0.76912,-1.61972 0.85388,-1.42958 0.44578,1 -0.27716,1.65 -0.0957,7.58603 0.4033,13.19117 1.17029,13.14633 3.17447,16.86671 16.43759,30.51326 16.0418,16.50555 21.76599,28.62794 23.84649,50.50084 1.24714,13.11147 -0.49355,30.87612 -4.68322,47.79473 -1.362,5.5 -2.48276,10.39375 -2.49057,10.875 -0.008,0.48125 1.37462,0.59723 3.07208,0.25774 3.48473,-0.69694 25.25466,-9.70079 31.52252,-13.03743 l 4.11054,-2.18821 -4.93389,-4.95355 C 261.2674,547.64143 256.44498,534.2527 257.85494,511.97033 l 0.69464,-10.97776 -3.60547,-7.29516 c -2.91451,-5.89712 -5.9784,-9.68365 -15.98781,-19.75862 -14.71811,-14.81452 -16.9695,-19.08233 -17.09787,-32.41125 -0.0667,-6.9303 0.45522,-9.47084 3.90362,-19 3.54837,-9.80542 3.97763,-11.97738 3.95272,-20 -0.0315,-10.12984 -0.5861,-12.15631 -7.93733,-29 -7.06234,-16.18176 -8.90802,-24.19097 -8.29139,-35.97985 0.52166,-9.97305 2.80369,-16.55747 7.50709,-21.66046 2.66689,-2.89344 2.28341,-3.55823 -2.23043,-3.86664 -5.54967,-0.37918 -6.52894,-0.008 -11.11184,4.2168 -8.66316,7.98542 -13.23244,21.78628 -11.42727,34.51442 1.18184,8.33306 2.94165,13.46713 7.52482,21.95295 1.93286,3.57873 3.51429,6.7246 3.51429,6.99084 0,1.21554 -5.9048,-4.3407 -6.02362,-5.66806 -0.10201,-1.13954 -0.26164,-1.18114 -0.66429,-0.1731 -0.61623,1.5427 -8.55255,-9.8556 -11.49724,-16.51257 -3.14971,-7.12044 -3.48595,-16.7739 -0.86664,-24.88155 2.78441,-8.61868 5.55643,-13.35501 12.52755,-21.40478 5.5781,-6.44122 6.44819,-8.028 4.40205,-8.028 -2.20135,0 -14.15346,10.60257 -18.57111,16.47421 -6.0302,8.01494 -8.19352,12.48561 -9.8327,20.32004 -2.5428,12.1533 0.80124,25.95267 9.31414,38.43531 3.86063,5.66091 9.64662,18.20057 12.17471,26.38557 2.84364,9.20666 2.59507,16.39204 -1.00756,29.12435 -7.02097,24.81335 -5.05841,34.6502 12.79413,64.12741 9.59843,15.84845 14.81749,27.03968 17.43245,37.38046 3.06364,12.11505 2.2095,29.19632 -2.18784,43.75265 -5.95486,19.71218 -6.96253,24.94641 -6.97868,36.25 -0.0194,13.59117 1.21482,13.95791 6.73082,2 z m -14.74617,-199.0066 c 0,-1.51613 -0.39558,-4.1359 -0.87906,-5.8217 -0.48348,-1.6858 -1.20363,-8.20783 -1.60034,-14.49339 -0.84286,-13.35443 0.30924,-13.81355 3.49322,-1.39207 1.64046,6.39983 1.91073,9.5839 1.37624,16.21376 -0.3658,4.5375 -1.05322,8.25 -1.52758,8.25 -0.47436,0 -0.86248,-1.24047 -0.86248,-2.7566 z m 29,189.33418 c 14.84493,-4.62095 47.04641,-21.94707 50.45324,-27.14655 2.23694,-3.41401 1.3218,-4.1343 -2.69726,-2.12296 -8.78962,4.39876 -18.3125,7.78872 -28.75598,10.23657 -6.325,1.48252 -13.075,3.07981 -15,3.54954 -3.50932,0.85631 -4.76468,3.05108 -8.66883,15.15582 -0.67375,2.08894 -0.93148,2.07086 4.66883,0.32758 z m 22.32085,-117.82758 c -0.76776,-6.675 -2.92296,-11.3195 -9.88877,-21.31054 -9.30299,-13.34324 -11.58793,-18.97707 -12.14267,-29.93946 -0.38757,-7.65886 -0.0703,-10.26663 2.12882,-17.5 5.63834,-18.54536 6.80822,-24.9774 6.36591,-35 -0.33897,-7.68091 -1.00725,-10.93612 -3.49004,-17 -4.8404,-11.82202 -13.9766,-30.2151 -16.61244,-33.44433 l -2.40329,-2.94432 -1.30504,2.43849 c -2.14286,4.00397 -2.39404,15.63133 -0.49577,22.95016 0.92723,3.575 4.34482,12.86525 7.59462,20.645 8.30938,19.89192 8.98523,25.14366 5.45639,42.39935 -1.48213,7.24749 -2.70748,15.48989 -2.723,18.31645 -0.0604,11.00466 5.71774,25.76891 15.115,38.62151 2.621,3.58473 6.20771,8.65519 7.97048,11.26769 1.76277,2.6125 3.59059,4.75 4.06183,4.75 0.47125,0 0.63683,-1.9125 0.36797,-4.25 z m 99.03552,-151.24501 c 7.40489,-2.24654 11.26662,-5.09474 13.68715,-10.09489 1.20198,-2.48297 1.89865,-4.80127 1.54814,-5.15178 -0.35051,-0.35051 -3.81413,0.38588 -7.69692,1.63642 -7.60337,2.44883 -10.03103,2.26134 -4.92287,-0.3802 3.90443,-2.01905 14.57548,-12.73852 16.62346,-16.69889 l 1.51345,-2.92668 -3.80439,0.69547 c -2.09242,0.38251 -4.84618,1.0825 -6.11949,1.55552 -3.00687,1.11703 -3.1849,1.09463 -3.1849,-0.40063 0,-0.69337 2.37306,-3.15427 5.27346,-5.46866 2.9004,-2.3144 6.81368,-5.7971 8.69617,-7.73933 3.04326,-3.13986 3.19278,-3.53134 1.34866,-3.53134 -1.14072,0 -3.68954,0.675 -5.66405,1.5 -1.9745,0.825 -4.16696,1.49965 -4.87212,1.49922 -1.291,-7.9e-4 4.79279,-5.91793 8.95929,-8.71388 1.23278,-0.82726 2.02292,-1.85764 1.75587,-2.28974 -0.81418,-1.31738 -8.51613,0.89427 -17.99728,5.16801 -29.22362,13.17287 -38.43024,15.62826 -62,16.53531 -23.10258,0.88907 -33.75668,-0.71222 -57,-8.56701 -4.95,-1.67279 -11.64069,-3.77656 -14.8682,-4.67504 -4.06723,-1.13223 -7.21927,-2.87896 -10.27046,-5.69144 -7.14897,-6.5897 -7.38456,-2.42946 -0.28226,4.98457 2.23921,2.3375 3.46692,4.25 2.72824,4.25 -1.92048,0 -8.74567,-4.80774 -12.57032,-8.85468 -3.75804,-3.97646 -4.74061,-3.57457 -4.59758,1.88049 0.11062,4.21842 4.21279,11.54312 9.06954,16.19424 5.03417,4.82104 19.29955,12.64247 32.16096,17.63323 18.55309,7.19937 34.43994,10.42678 57.13008,11.60596 7.20197,0.37428 14.74032,1.62828 24,3.9924 14.95298,3.81769 23.66126,4.38795 31.35637,2.05335 z m -45.78126,-40.47782 c 12.18982,-2.20125 23.27221,-5.73119 37.42489,-11.92052 16.1103,-7.04544 19.95149,-9.24464 23.81674,-13.6358 3.99683,-4.54063 8.21009,-14.90285 8.19338,-20.15104 -0.01,-3.10189 -0.089,-3.15758 -3.2135,-2.26148 -1.76186,0.50529 -6.19128,2.90553 -9.84316,5.33387 -14.65054,9.74195 -23.21952,12.48701 -32.94709,10.55456 -3.02851,-0.60163 -11.80637,-4.20003 -19.50637,-7.99644 -24.83992,-12.24707 -31.28474,-13.61369 -44.5,-9.4362 -12.7542,4.03174 -21.72776,10.16163 -26.1233,17.84497 -3.24793,5.67733 -3.40595,17.09834 -0.29495,21.31758 7.70575,10.45078 39.35757,15.341 66.99336,10.3505 z m 121.42489,566.67004 c -2.48725,-1.26682 -2.49745,-1.32921 -2,-12.23526 1.11436,-24.43102 0.31702,-54.53035 -1.90629,-71.96195 -5.02426,-39.39212 -10.97119,-69.24197 -20.02242,-100.5 -2.21963,-7.66538 -3.24965,-12.53733 -2.38324,-11.2726 0.83924,1.22508 5.03934,9.55008 9.33357,18.5 19.39997,40.433 31.61243,77.22563 37.45954,112.85484 3.14622,19.1714 3.11434,24.68879 -0.066,11.41776 -5.74999,-23.99397 -19.51976,-65.41714 -20.21341,-60.80738 -0.16403,1.09003 0.17806,5.54261 0.7602,9.89463 2.70655,20.2341 4.22604,42.9514 4.37526,65.41275 0.15551,23.40894 -0.74686,40.01688 -2.17256,39.98526 -0.36557,-0.008 -1.78968,-0.58773 -3.16468,-1.28805 z M 694.83796,710.14929 c -0.29853,-0.48303 0.72664,-1.13213 2.27817,-1.44243 3.17851,-0.63571 4.86192,-4.13649 13.68265,-28.45411 2.64834,-7.30114 5.2321,-13.13582 5.74168,-12.96596 0.50959,0.16986 4.31957,9.41351 8.46663,20.54144 6.48209,17.39359 7.87095,20.31564 9.89787,20.82437 4.85928,1.2196 2.08578,2.37494 -5.70127,2.37494 -5.11803,0 -7.83347,-0.36493 -7.44098,-1 0.33992,-0.55 1.32536,-1 2.18986,-1 1.86882,0 1.42274,-4.4014 -1.04456,-10.30649 l -1.54325,-3.69351 h -6.60205 -6.60205 l -1.48461,3.55316 c -0.81653,1.95424 -1.75503,4.9053 -2.08555,6.5579 -0.49812,2.49058 -0.23727,3.09985 1.52438,3.56053 1.16894,0.30569 1.87884,0.95463 1.57757,1.4421 -0.71105,1.15049 -12.144,1.15767 -12.85449,0.008 z m 25.10611,-18.55925 c -0.21379,-0.58438 -1.39125,-4.1 -2.61657,-7.8125 -2.11485,-6.40764 -4.0642,-8.80518 -4.06529,-5 -2.8e-4,0.9625 -0.90028,4.11733 -2,7.01073 -1.09973,2.8934 -1.9995,5.62152 -1.9995,6.0625 0,0.44097 2.49077,0.80177 5.53504,0.80177 3.48432,0 5.39102,-0.39365 5.14632,-1.0625 z m 25.06864,18.27522 c -2.49697,-0.91197 -2.75,-1.46221 -2.75,-5.98007 0,-3.06248 0.38451,-4.73804 1,-4.35765 0.55,0.33992 1,1.21889 1,1.95326 0,0.73438 1.30554,2.73282 2.90121,4.44098 7.4314,7.95534 20.64797,0.0456 14.52667,-8.69375 -0.86467,-1.23448 -4.29133,-3.61716 -7.6148,-5.29484 -8.45416,-4.26766 -10.81851,-7.07259 -10.79084,-12.80167 0.0235,-4.86757 1.80866,-8.01632 5.66202,-9.98694 2.43195,-1.24371 13.20244,-1.49777 14.91111,-0.35173 1.1014,0.73874 2.71681,8.23469 1.77461,8.23469 -0.27736,0 -1.9897,-1.575 -3.80521,-3.5 -3.87154,-4.10503 -8.37555,-4.68922 -11.56477,-1.5 -2.36383,2.36383 -2.62015,7.237 -0.49255,9.36459 0.8291,0.8291 4.83666,3.40163 8.90569,5.71674 7.90128,4.49549 9.58686,6.73603 9.58686,12.74322 0,7.23868 -5.28061,11.22473 -14.70034,11.0965 -3.18981,-0.0434 -7.03716,-0.53092 -8.54966,-1.08333 z m 29.25,0.27069 c 0,-0.49038 1.13511,-1.17649 2.52246,-1.52469 l 2.52247,-0.6331 -0.27247,-18.2128 -0.27246,-18.21279 -3,-1.51252 c -2.83254,-1.42808 -2.19103,-1.52808 11.49226,-1.79144 15.96903,-0.30736 17.00774,0.0572 17.00774,5.97006 0,3.4696 -0.49888,3.50298 -3.32091,0.22218 -1.48764,-1.72949 -3.8556,-2.89132 -7.14558,-3.50595 -8.07887,-1.5093 -8.53351,-1.06062 -8.53351,8.42164 v 8.19422 l 5.26135,-0.0551 c 6.10875,-0.064 7.73865,-0.81928 7.73865,-3.58615 0,-1.1 0.3762,-1.7675 0.836,-1.48333 0.4598,0.28417 0.7223,1.54823 0.58333,2.80902 -0.13896,1.26079 -0.30447,3.86734 -0.3678,5.79234 -0.10493,3.18959 -0.23701,3.33925 -1.48931,1.68745 -0.91721,-1.20981 -3.24805,-2.00595 -7.00923,-2.39414 l -5.63506,-0.58159 0.29103,8.89414 0.29104,8.89414 6.20942,0.29666 c 7.12355,0.34034 11.73663,-1.48677 13.49445,-5.34476 1.99015,-4.36791 2.56945,-2.59833 0.99785,3.0481 l -1.53084,5.5 h -15.33544 c -8.43449,0 -15.33544,-0.40122 -15.33544,-0.89159 z m 40.25,-0.0883 c -1.2375,-0.52562 -2.25,-1.58892 -2.25,-2.3629 0,-0.77397 -0.28125,-2.81347 -0.625,-4.53222 -0.4037,-2.01852 -0.22667,-3.125 0.5,-3.125 0.61875,0 1.125,0.62741 1.125,1.39424 0,0.76684 1.30554,2.79184 2.90121,4.5 2.39071,2.55927 3.67127,3.10576 7.27749,3.10576 6.09228,0 8.8213,-2.13517 8.8213,-6.90172 0,-4.45369 -1.33018,-5.87839 -10.84164,-11.61202 -5.64114,-3.40054 -6.88513,-4.66765 -8.1427,-8.29403 -1.37921,-3.97716 -1.3438,-4.54106 0.5,-7.96238 2.74441,-5.09244 5.66814,-6.37262 13.68066,-5.99017 3.68298,0.1758 6.97364,0.59695 7.31259,0.93589 0.33894,0.33895 0.47559,2.5756 0.30367,4.97035 l -0.31258,4.35409 -2.19722,-3.7177 c -3.57506,-6.04902 -11.31589,-6.32837 -14.10502,-0.50904 -2.11257,4.40773 0.10502,7.50449 8.80224,12.29193 11.62319,6.39805 13.88873,13.05101 7.05048,20.70434 -2.64851,2.9642 -3.34372,3.199 -10.19639,3.44368 -4.04475,0.14442 -8.36659,-0.16746 -9.60409,-0.69309 z m 42.25,-0.40897 c -4.0965,-1.78958 -9.29003,-6.2989 -10.91867,-9.48027 -0.74076,-1.44698 -1.65377,-4.89851 -2.02892,-7.67006 -1.24238,-9.1785 4.89658,-20.43385 12.76269,-23.39949 4.388,-1.65435 13.6978,-1.23988 18.1849,0.8096 5.2706,2.40737 10.2757,7.66254 11.502,12.07662 3.1504,11.3406 -1.6603,22.7204 -11.4934,27.18747 -4.7113,2.14027 -13.6578,2.37681 -18.0086,0.47613 z m 17.1646,-3.71749 c 8.7173,-8.02776 8.3999,-25.61291 -0.599,-33.18503 -6.2085,-5.22407 -15.7844,-2.75218 -20.5115,5.29477 -1.5993,2.72232 -2.041,5.15738 -1.995,10.9966 0.07,8.85167 2.6569,14.90697 7.7312,18.0949 4.3487,2.73197 11.7294,2.15529 15.3743,-1.20124 z m 18.3354,4.5816 c 0,-0.28861 1.135,-0.95626 2.5221,-1.48366 l 2.5222,-0.95891 -0.2722,-18.76634 c -0.2698,-18.6062 -0.2913,-18.76907 -2.5221,-19.08589 -1.2375,-0.17575 -2.25,-0.73825 -2.25,-1.25 0,-1.25841 19.5707,-1.17741 24.17,0.10004 5.7313,1.59185 7.9611,3.94782 8.5266,9.00897 0.5909,5.28793 -1.9798,9.34525 -7.34,11.58489 l -3.3076,1.382 6.0357,8.02592 c 3.3196,4.41426 6.9085,8.57108 7.9755,9.23737 2.9906,1.86772 2.3247,2.73036 -2.1079,2.73036 -4.8449,0 -6.8862,-1.90591 -12.9211,-12.06422 -3.6162,-6.08697 -4.4822,-6.93578 -7.0759,-6.93578 h -2.9553 v 7.3 c 0,7.57519 0.9329,9.7 4.259,9.7 1.0225,0 1.5809,0.45 1.241,1 -0.62,1.00311 -16.5,1.46051 -16.5,0.47525 z m 17.5051,-21.47525 c 1.2878,0 3.726,-1.165 5.4182,-2.58889 2.5441,-2.14076 3.0767,-3.32229 3.0767,-6.82569 0,-3.10477 -0.6012,-4.79794 -2.25,-6.33698 -2.7209,-2.53972 -6.8656,-3.68722 -10.25,-2.8378 -2.4301,0.60993 -2.5,0.87383 -2.5,9.44175 0,9.11096 0.4228,10.58309 2.7796,9.67871 0.7612,-0.29211 2.4376,-0.5311 3.7255,-0.5311 z m 30.4949,21.13773 c 0,-0.54925 1.0064,-1.14243 2.2365,-1.31818 3.0457,-0.43516 3.4812,-3.8938 2.8099,-22.31955 -0.5225,-14.34411 -0.6448,-15.04316 -2.7964,-15.98713 -4.0554,-1.7792 -2.3766,-2.51287 5.75,-2.51287 8.1266,0 9.8054,0.73367 5.75,2.51287 -2.2134,0.97109 -2.25,1.27961 -2.25,18.98713 0,17.70752 0.037,18.01604 2.25,18.98713 1.2375,0.54292 2.25,1.23838 2.25,1.54546 0,0.30708 -3.6,0.68105 -8,0.83105 -4.8414,0.16503 -8,-0.12158 -8,-0.72591 z m 22,-0.13773 c 0,-0.55 0.6053,-1 1.345,-1 2.4366,0 4.2738,-3.33368 9.6444,-17.5 8.0895,-21.33825 8.5409,-22.43032 9.7856,-23.67498 0.8793,-0.87927 1.2869,-0.81699 1.6868,0.25776 0.2901,0.77947 2.5027,6.81722 4.9169,13.41722 9.9759,27.27222 9.6385,26.55344 12.75639,27.17703 5.4259,1.08517 2.8467,2.10729 -5.38389,2.13359 -7.3885,0.0236 -8.0451,-0.12254 -6.2961,-1.40147 1.9161,-1.40109 1.9184,-1.52876 0.1213,-6.8158 -1.0073,-2.96338 -2.1212,-5.85688 -2.4754,-6.42999 -0.6104,-0.98755 -12.7012,-1.95492 -13.4679,-1.07755 -1.1321,1.29565 -4.5676,12.21121 -4.0876,12.98782 0.3149,0.5095 1.4194,0.92637 2.4545,0.92637 1.0351,0 2.1601,0.45 2.5,1 0.3897,0.63059 -1.9896,1 -6.441,1 -4.0393,0 -7.059,-0.42778 -7.059,-1 z m 24.6077,-18.38547 c 0.059,-0.063 -1.1387,-3.48953 -2.6622,-7.61453 -1.611,-4.36208 -2.9991,-6.87242 -3.3177,-6 -0.3013,0.825 -1.4656,3.975 -2.5873,7 -2.9769,8.02793 -2.9109,8.17996 3.2095,7.39897 2.8875,-0.36845 5.2985,-0.72145 5.3577,-0.78444 z m -813.60571,0.72958 c -5.58003,-12.30649 -7.22425,-19.03772 -7.75947,-31.76624 -1.00829,-23.97952 4.93243,-42.17174 25.12342,-76.93514 4.32548,-7.44731 8.65977,-16.49387 10.30085,-21.5 2.66089,-8.11705 2.82986,-9.64631 2.77806,-25.14273 -0.0459,-13.74712 -0.50989,-18.81674 -2.78075,-30.38591 -1.49909,-7.63725 -2.57137,-14.04015 -2.38285,-14.22867 0.51808,-0.51808 6.38163,14.23319 8.59168,21.61458 4.88264,16.30761 7.1026,36.3673 5.17998,46.80674 -1.97305,10.71335 -6.66687,21.11668 -16.10425,35.69326 -24.91672,38.48534 -30.3273,62.01643 -21.55626,93.75 1.33015,4.8125 2.2405,8.75 2.02299,8.75 -0.21751,0 -1.75355,-2.99515 -3.4134,-6.65589 z m 771.99801,-29.15803 c 0,-0.83658 4.4564,-4.62613 7.6452,-6.50119 2.5455,-1.4968 2.1391,2.33154 -0.4404,4.14799 -3.3562,2.36344 -7.2048,3.62045 -7.2048,2.3532 z M 128.41489,641.27754 c -8.90683,-23.87879 -5.05398,-35.75792 17.47459,-53.87773 15.35759,-12.35218 25.08664,-25.19464 30.06033,-39.67999 2.5404,-7.39865 2.8129,-9.50009 2.8129,-21.69228 v -13.5 l -4.18226,-10 c -2.30024,-5.5 -5.55428,-13.28833 -7.23119,-17.3074 -6.21906,-14.90526 -7.50971,-30.0117 -3.54173,-41.45443 0.90819,-2.61901 5.1687,-10.1599 9.4678,-16.75754 4.29911,-6.59764 9.05218,-15.14512 10.5624,-18.9944 1.51021,-3.84928 2.89116,-6.85338 3.06877,-6.67578 0.6887,0.6887 -1.5247,13.53697 -3.49507,20.28804 -1.13947,3.90417 -3.65561,11.02722 -5.59142,15.82899 -6.44552,15.98809 -7.82483,22.00747 -7.3436,32.04777 0.37316,7.78554 1.27502,11.49638 6.56788,27.02475 7.23848,21.2365 8.65226,29.0797 7.93125,44 -0.55168,11.41626 -2.10837,17.44305 -6.97974,27.02248 -3.48837,6.85977 -6.89714,10.95744 -21.61019,25.97752 -7.00385,7.15 -14.09239,15.025 -15.75232,17.5 -6.4392,9.60103 -9.90241,22.76674 -8.74634,33.25 0.34875,3.1625 0.44455,5.75 0.2129,5.75 -0.23166,0 -1.88989,-3.9375 -3.68496,-8.75 z m 725.76452,-8.66518 c -0.2292,-0.22834 -2.4417,-0.71144 -4.9167,-1.07355 -2.475,-0.3621 -4.87073,-1.01851 -5.32386,-1.45867 -1.22981,-1.19466 -2.64025,-18.39154 -1.59818,-19.48593 0.48879,-0.51334 1.00871,-0.73834 1.15537,-0.5 0.14667,0.23833 1.65131,3.13333 3.34364,6.43333 4.11493,8.02408 9.32333,11.73765 17.16783,12.24069 10.1727,0.65234 16.2501,-4.76476 16.2536,-14.48781 0,-6.00292 -4.3091,-10.36951 -17.523,-17.74769 -13.0788,-7.3027 -17.86142,-12.23069 -19.49179,-20.08415 -3.25697,-15.68873 9.26359,-27.60404 27.42329,-26.09756 3.9012,0.32364 8.7212,1.06301 10.7112,1.64305 l 3.618,1.05462 1.1229,8.6985 c 1.2626,9.78082 0.261,12.53667 -2.2634,6.22763 -2.6057,-6.51214 -6.3161,-10.6751 -11.1651,-12.52699 -8.6968,-3.3213 -18.1639,2.03496 -19.1561,10.83799 -0.86,7.62984 3.696,13.20407 15.7256,19.24014 8.9844,4.50808 16.0657,9.60958 19.042,13.71828 5.5914,7.71864 4.7507,17.329 -2.2072,25.23363 -5.3024,6.0238 -12.1581,8.54967 -23.2056,8.54967 -4.5627,0 -8.4834,-0.18683 -8.7125,-0.41518 z m -302.32467,-1.96405 c 0.30058,-0.7833 2.07084,-1.71014 3.93391,-2.05966 1.93088,-0.36223 4.28282,-1.77382 5.46986,-3.28291 2.02547,-2.57496 2.07456,-3.51706 1.79334,-34.42075 -0.27687,-30.42482 -0.37402,-31.83743 -2.28914,-33.28359 -1.1,-0.83064 -2.53321,-1.52456 -3.1849,-1.54206 -2.71448,-0.0729 -6.60272,-2.14418 -5.7068,-3.0401 0.53144,-0.53144 13.42347,-0.97211 29.91283,-1.02246 l 28.97887,-0.0885 1.25904,7.30963 c 0.69247,4.0203 1.14247,8.43463 1,9.80963 -0.23401,2.25846 -0.52811,2.04226 -3.04398,-2.23769 -1.53172,-2.60573 -4.44868,-5.86823 -6.48214,-7.25 -3.35896,-2.28248 -4.64254,-2.51231 -14.0308,-2.51231 -5.68348,0 -11.20402,0.46583 -12.26786,1.03518 -1.77549,0.95022 -1.93426,2.22252 -1.93426,15.5 v 14.46482 h 8.4349 c 11.06581,0 13.00155,-0.80936 14.79356,-6.18538 0.79101,-2.37304 1.85071,-4.31462 2.35487,-4.31462 1.24699,0 1.73971,23.57696 0.51825,24.79842 -0.6197,0.6197 -1.48797,-0.28741 -2.42754,-2.53613 -2.34604,-5.61487 -4.87368,-6.76229 -14.89655,-6.76229 h -8.77749 v 15.30887 c 0,17.55408 0.27636,18.30875 7.36372,20.1083 2.60317,0.66097 4.82377,1.625 4.93466,2.1423 0.11847,0.55263 -7.31576,1.0529 -18.02562,1.213 -15.43652,0.23075 -18.14356,0.0544 -17.68073,-1.1517 z m 71.40797,0.007 c 0,-0.81406 1.5359,-1.61779 3.77606,-1.97601 8.0847,-1.2928 7.69221,0.44425 7.98079,-35.32021 0.19615,-24.30951 -0.0455,-32.42236 -1.02283,-34.33159 -1.10566,-2.16004 -4.5745,-3.7548 -10.73402,-4.93484 -0.275,-0.0527 0.175,-0.532 1,-1.06516 1.85359,-1.19788 32.98476,-1.29585 34.85676,-0.10969 1.69669,1.07508 0.66288,1.73398 -4.13193,2.63349 -2.23035,0.41841 -4.56642,1.73065 -5.74238,3.22564 -1.87892,2.38866 -1.98245,4.12516 -1.98245,33.25056 0,29.5739 0.078,30.82942 2.07239,33.3649 1.34853,1.71438 3.44425,2.85399 6,3.26267 2.35682,0.37687 3.92761,1.17683 3.92761,2.00024 0,1.1121 -3.4118,1.37219 -18,1.37219 -14.5882,0 -18,-0.26009 -18,-1.37219 z m 47.55482,0.46089 c -0.37487,-0.60655 -0.0906,-1.27325 0.6318,-1.48156 0.72236,-0.2083 3.17209,-0.88207 5.44385,-1.49726 6.38466,-1.72898 6.49549,-2.40013 6.16183,-37.31564 -0.32929,-34.45781 -0.2302,-34.01663 -7.93251,-35.31793 -2.33081,-0.39379 -3.80254,-1.1443 -3.57456,-1.82285 0.27905,-0.83055 7.36205,-1.14955 25.30116,-1.13948 21.28545,0.0119 25.78554,0.28091 30.90093,1.84693 18.46516,5.65288 28.51268,19.09263 28.51268,38.13909 0,13.78651 -5.0999,23.90937 -15.66988,31.10334 -10.33673,7.03522 -13.28934,7.59344 -42.96192,8.12238 -18.42931,0.32851 -26.33269,0.14075 -26.81338,-0.63702 z m 54.18682,-6.01944 c 6.05248,-2.66544 10.84812,-7.5594 14.31918,-14.61274 2.19114,-4.45248 2.43918,-6.22766 2.43918,-17.45652 0,-11.3749 -0.23412,-12.99915 -2.60111,-18.04563 -3.57264,-7.61694 -8.02876,-12.38156 -14.57554,-15.5846 -4.65899,-2.27943 -6.91392,-2.72306 -14.1816,-2.79008 -10.57253,-0.0975 -13.71425,0.69491 -14.5086,3.65937 -1.16696,4.35501 -0.70421,61.75742 0.51655,64.07668 1.86146,3.53647 2.85912,3.79191 13.3503,3.41815 7.70674,-0.27456 11.20205,-0.88563 15.24164,-2.66463 z m 40.25836,5.43074 c 0,-0.94358 0.95175,-1.5 2.56574,-1.5 2.78549,0 6.49775,-1.64568 7.66895,-3.3997 0.40408,-0.60517 0.74158,-15.56295 0.75,-33.23952 0.0172,-36.08787 0.10963,-35.61612 -7.26925,-37.09981 -2.08151,-0.41853 -3.77018,-1.21097 -3.7526,-1.76097 0.0283,-0.88459 57.6726,-2.55164 58.99764,-1.70618 0.83995,0.53593 3.79447,16.68864 3.22946,17.65583 -0.30511,0.52231 -1.71017,-0.57428 -3.12235,-2.43687 -7.03095,-9.27345 -8.80938,-10.01278 -24.0856,-10.01278 -7.98466,0 -9.87883,0.28879 -10.375,1.58179 -0.33385,0.86998 -0.60699,7.88715 -0.60699,15.5937 v 14.01192 l 10.09624,-0.3437 c 9.81703,-0.33421 10.16156,-0.42569 12.45854,-3.30815 1.29928,-1.63044 2.49347,-3.84519 2.65377,-4.92167 0.1603,-1.07648 0.87482,-2.14944 1.58782,-2.38435 1.03261,-0.34022 1.20148,2.18715 0.82996,12.42167 -0.53802,14.82149 -0.3586,13.34879 -1.62633,13.34879 -0.55,0 -1,-0.86538 -1,-1.92308 0,-1.05769 -1.38462,-3.30769 -3.07692,-5 -3.00053,-3.00052 -3.3109,-3.07692 -12.5,-3.07692 h -9.42308 v 15 c 0,13.47972 0.1954,15.1954 1.92792,16.92792 2.43508,2.43508 9.27754,3.48586 17.1983,2.64112 10.42388,-1.11171 16.22087,-4.56813 21.49968,-12.81904 1.31955,-2.0625 2.85212,-3.75 3.4057,-3.75 1.1637,0 0.68933,2.32023 -2.70897,13.25 l -2.40964,7.75 h -31.4565 c -27.29466,0 -31.45649,-0.19846 -31.45649,-1.5 z m 160,0.0142 c 0,-0.95888 0.941,-1.51425 2.5657,-1.51425 2.9802,0 6.4131,-1.64785 8.1525,-3.91334 1.8744,-2.44139 1.7757,-59.96873 -0.1106,-64.48345 -1.3858,-3.31646 -5.4016,-5.60316 -9.8402,-5.60316 -1.1023,0 -1.7553,-0.53754 -1.5183,-1.25 0.3078,-0.92517 5.1369,-1.32083 18.5834,-1.52256 15.7212,-0.23586 18.1675,-0.0675 18.1675,1.25 0,0.86819 -0.8809,1.52256 -2.0497,1.52256 -3.6075,0 -7.6949,2.82856 -8.8419,6.11884 -0.7134,2.04662 -1.1084,13.59864 -1.1084,32.4196 0,36.13566 -0.8645,33.99075 13.6641,33.90037 14.8061,-0.0921 19.3477,-2.32423 24.922,-12.24885 1.6026,-2.85336 3.2514,-5.18838 3.6639,-5.18894 1.2821,-0.002 0.6766,5.16432 -1.582,13.49898 l -2.168,8 -31.25,0.26425 c -27.3581,0.23133 -31.25,0.0757 -31.25,-1.25 z m 73.2347,0.28169 c 0.2207,-0.66223 1.94569,-1.60057 3.83329,-2.08519 7.2115,-1.85151 6.932,-0.39276 6.932,-36.17461 0,-24.31367 -0.3078,-32.57486 -1.2624,-33.88037 -0.6944,-0.94957 -3.1137,-2.27307 -5.3762,-2.94113 -8.74069,-2.58082 -4.51099,-3.21217 24.886,-3.71464 16.0889,-0.275 29.3928,-0.43483 29.5641,-0.35519 0.1713,0.0797 0.9797,4.29624 1.7965,9.37019 1.4847,9.22371 1.1565,12.12594 -0.9753,8.62456 -6.7014,-11.00671 -9.6294,-12.63951 -22.6663,-12.63951 -13.4955,0 -12.9664,-0.67467 -12.9664,16.53518 v 14.46482 h 9.3892 c 10.5283,0 13.1569,-1.19677 15.063,-6.85793 2.0749,-6.16268 3.0478,-3.28201 3.0478,9.0246 0,8.15955 -0.3724,12.29079 -1.1307,12.54355 -0.6218,0.20729 -1.4276,-0.80647 -1.7906,-2.25279 -0.363,-1.44632 -1.7463,-3.71592 -3.0739,-5.04355 -2.2147,-2.21466 -3.2017,-2.41388 -11.9593,-2.41388 h -9.5455 v 15.97432 15.97432 l 3.211,1.66045 c 2.6066,1.34796 4.8831,1.54175 12.0966,1.02972 13.4086,-0.95177 19.9546,-4.62061 24.7805,-13.88881 1.0739,-2.0625 2.4292,-3.75 3.0117,-3.75 1.3346,0 0.549,4.0689 -2.7516,14.25 l -2.5124,7.75 h -31.0013 c -23.7256,0 -30.90699,-0.28258 -30.59979,-1.20406 z m 73.81749,0.25746 c -1.1183,-0.70745 -0.7768,-1.06591 1.5,-1.5745 8.5996,-1.92108 8.9159,-2.19196 21.7606,-18.63238 l 12.5641,-16.08131 -2.2962,-3.6326 c -1.263,-1.99794 -6.3979,-9.7955 -11.411,-17.32791 -9.7895,-14.70906 -14.1422,-18.80465 -19.9852,-18.80465 -2.236,0 -3.2128,-0.41596 -2.9354,-1.25 0.3071,-0.9234 5.0558,-1.32145 18.1745,-1.52345 13.1005,-0.20171 17.6576,0.0299 17.3732,0.8831 -0.212,0.6361 -1.9406,1.65915 -3.8412,2.27345 -2.2193,0.71733 -3.5587,1.8366 -3.7439,3.12864 -0.3512,2.45043 13.7889,23.98826 15.7488,23.98826 0.7502,0 4.9166,-4.65748 9.2586,-10.34996 9.4105,-12.33752 9.818,-14.6709 3.0003,-17.18011 -2.3543,-0.86649 -3.9668,-1.8892 -3.5833,-2.27269 0.3835,-0.38348 7.4273,-0.69724 15.653,-0.69724 12.3767,0 14.7643,0.23076 13.8452,1.33815 -0.6108,0.73599 -2.8599,1.86228 -4.998,2.50287 -4.4822,1.34289 -14.003,10.84736 -23.9327,23.89157 l -6.2259,8.17864 11.428,17.29439 c 6.2855,9.51191 12.5424,18.34016 13.9044,19.61834 1.3619,1.27818 4.4136,2.89599 6.7815,3.59513 2.3678,0.69915 4.4784,1.79087 4.6901,2.42604 0.2804,0.84125 -3.9828,1.15487 -15.6984,1.15487 -8.8458,0 -16.0833,-0.37396 -16.0833,-0.83102 0,-0.45706 1.125,-1.4331 2.5,-2.16898 1.375,-0.73588 2.5,-1.86262 2.5,-2.50388 0,-2.52104 -16.238,-27.53172 -17.8352,-27.47073 -0.8057,0.0308 -11.9347,15.97665 -14.4954,20.76951 -2.6032,4.87227 -1.6066,7.60774 3.3082,9.08026 2.2123,0.66282 4.0224,1.63706 4.0224,2.16498 0,1.23971 -28.9896,1.25213 -30.9478,0.0133 z M 288.69483,539.52754 c 0.57028,-14.64924 3.46927,-30.10817 8.52228,-45.44527 4.76726,-14.4698 7.99168,-21.3514 14.91624,-31.83447 4.89061,-7.40387 5.45711,-8.80874 5.35525,-13.28041 -0.19792,-8.68922 -9.74996,-22.14669 -21.27461,-29.97293 -7.55939,-5.13349 -8.51932,-6.7952 -2.02408,-3.50381 9.45714,4.7923 26.21506,11.61548 31.92092,12.99697 3.10853,0.75264 10.71438,1.93642 16.90188,2.63062 6.1875,0.69421 11.25,1.54456 11.25,1.88969 0,0.722 -16.72252,16.36538 -17.98327,16.82276 -1.65002,0.5986 -12.82227,14.83688 -17.02471,21.69685 -7.93013,12.94495 -19.80857,41.56836 -25.6361,61.77513 -5.78912,20.07359 -5.44603,19.63983 -4.9238,6.22487 z m 343.49073,3.60835 c 2.45353,-3.44567 14.588,-14.29176 17.99798,-16.08705 2.07444,-1.09215 2.60125,-1.02779 3.68166,0.44974 1.4194,1.94116 0.52443,5.47687 -1.69932,6.71337 -0.77174,0.42912 -5.28335,2.96804 -10.02579,5.64204 -11.78297,6.64376 -12.52184,6.88736 -9.95453,3.2819 z m 87.40287,-9.57514 c -23.32809,-3.62126 -45.10317,-15.51621 -60.07159,-32.81496 -3.43522,-3.97004 -6.24772,-7.55575 -6.25,-7.96825 -0.002,-0.4125 37.12087,-0.75 82.49587,-0.75 45.375,0 82.49408,0.3375 82.48685,0.75 -0.007,0.4125 -2.68447,3.89211 -5.94941,7.73246 -22.11802,26.01604 -57.27992,38.55089 -92.71172,33.05075 z m 267.85058,0.46057 c -25.5366,-3.58881 -47.6267,-15.46968 -62.6682,-33.70524 -3.0295,-3.67273 -5.5081,-7.04012 -5.5081,-7.48311 0,-0.44299 36.675,-0.80543 81.49999,-0.80543 44.825,0 81.5,0.30259 81.5,0.67242 0,0.99727 -9.8495,12.14016 -14.8383,16.78682 -10.4196,9.705 -25.6587,17.83908 -41.2269,22.00538 -10.5917,2.83453 -28.34319,3.99289 -38.75849,2.52916 z M 493.88145,470.77754 c 3.74028,-16.06153 10.06414,-34.20347 16.32403,-46.83053 12.46273,-25.13904 20.21031,-34.803 78.05723,-97.3649 15.125,-16.35781 30.00008,-32.47568 33.05574,-35.8175 l 5.55573,-6.07603 3.34148,8.41948 c 1.83782,4.63071 5.52524,11.83943 8.19427,16.01937 2.66903,4.17994 4.85278,8.01475 4.85278,8.5218 0,0.50704 -2.06479,3.16209 -4.58841,5.90011 -2.52363,2.73801 -8.48613,9.24076 -13.25,14.45056 -4.76388,5.2098 -13.61159,14.65681 -19.66159,20.99336 -16.4261,17.20409 -24.74453,26.06032 -39.01207,41.53428 -7.09967,7.7 -13.16162,14.225 -13.471,14.5 -0.30937,0.275 -10.64537,11.525 -22.96889,25 -23.60634,25.81207 -37.85138,41 -38.45466,41 -0.19887,0 0.71255,-4.6125 2.02536,-10.25 z m 431.38126,3.79944 c 0,-0.43114 9.8649,-30.76864 21.922,-67.41667 12.0571,-36.64802 28.95,-88.12027 37.5398,-114.38277 8.5898,-26.2625 15.80879,-47.75 16.04229,-47.75 0.4045,0 9.3597,27.35229 29.466,90 6.9431,21.63336 41.5381,126.59695 44.8243,136 0.2884,0.825 0.2032,1.21317 -0.1891,0.8626 -0.3924,-0.35057 -4.764,-11.37557 -9.7146,-24.5 -8.5548,-22.67941 -15.9005,-43.13265 -35.865,-99.8626 -4.839,-13.75 -11.4999,-32.425 -14.8021,-41.5 -3.3022,-9.075 -6.5578,-18.3 -7.2346,-20.5 -2.0201,-6.56626 -2.9876,-6.38929 -3.0071,0.55 -0.01,3.5475 -0.2441,14.55 -0.5204,24.45 -0.2763,9.9 -0.9583,37.575 -1.5155,61.5 -1.1755,50.469 -2.66729,94.05463 -3.23879,94.62616 -0.2188,0.21878 -0.6941,-21.7701 -1.0562,-48.86419 -1.3021,-97.42038 -1.9679,-131.76185 -2.5545,-131.75471 -0.3281,0.004 -2.2351,4.6165 -4.2377,10.25 -2.0027,5.63351 -7.5433,20.81774 -12.3124,33.74274 -4.7691,12.925 -13.1064,35.875 -18.5274,51 -5.4211,15.125 -13.2897,36.725 -17.486,48 -4.1963,11.275 -9.6797,26.125 -12.1854,33 -4.3611,11.96568 -5.3476,14.28071 -5.3476,12.54944 z m -265,-1.75044 c 0,-2.39732 74.27557,-226.4079 75.46475,-227.59708 0.29439,-0.29439 0.70528,-0.34775 0.91309,-0.11859 0.38432,0.42383 17.40874,51.96873 24.08316,72.91667 2.01526,6.325 14.22949,43.39397 27.14273,82.37549 12.91324,38.98152 23.3011,71.05301 23.08414,71.26997 -0.56017,0.56017 -18.57464,-47.24619 -28.88168,-76.64546 -2.21747,-6.325 -5.53065,-15.775 -7.36263,-21 -1.83198,-5.225 -6.24207,-17.6 -9.80019,-27.5 -16.4739,-45.83636 -21.94146,-61.24053 -22.80491,-64.25 -0.51286,-1.7875 -1.31318,-3.25 -1.77849,-3.25 -0.46531,0 -0.90324,14.2875 -0.97318,31.75 -0.0699,17.4625 -0.32916,33.775 -0.57606,36.25 -0.24689,2.475 -0.70753,19.35 -1.02365,37.5 -0.5911,33.93843 -2.21741,80.56366 -2.83151,81.17776 -0.47407,0.47407 -1.5309,-48.26909 -2.17201,-100.17776 -0.67846,-54.93202 -1.50539,-81.89584 -2.47913,-80.83747 -0.42378,0.46061 -3.80278,9.16247 -7.50889,19.33747 -3.7061,10.175 -10.76341,29.525 -15.6829,43 -4.91948,13.475 -10.47111,28.775 -12.33693,34 -10.84622,30.37337 -33.37393,91.23155 -34.00427,91.86189 -0.25929,0.2593 -0.47144,0.23099 -0.47144,-0.0629 z M 324.46464,424.49033 c -4.01394,-1.36733 -10.53894,-4.11638 -14.5,-6.10899 -6.69994,-3.3704 -23.70193,-14.02079 -23.70193,-14.84737 0,-0.202 4.79764,1.89576 10.66142,4.66169 10.37339,4.89311 26.67678,9.83188 32.45608,9.83188 4.17666,0 12.23753,-3.32112 16.76585,-6.90761 5.43051,-4.30104 10.95903,-12.96715 14.82326,-23.23588 3.20488,-8.51658 9.55771,-32.24729 10.88871,-40.6743 0.49532,-3.13602 1.3967,-4.76619 3.29333,-5.95606 1.43624,-0.90105 4.08951,-2.89554 5.89615,-4.43221 1.80663,-1.53667 3.71913,-2.79394 4.25,-2.79394 0.53086,0 0.9652,3.17367 0.9652,7.05259 0,11.18443 2.50769,20.14517 9.16383,32.74516 4.95715,9.38383 6.09405,12.47551 6.71105,18.25 0.40857,3.82374 0.61806,6.95225 0.46553,6.95225 -0.15253,0 -2.18149,-2.5875 -4.50881,-5.75 -2.32732,-3.1625 -6.99263,-8.92554 -10.36736,-12.80675 -4.3441,-4.99607 -6.98685,-9.23028 -9.05005,-14.5 l -2.91419,-7.44325 -0.29264,8.38611 c -0.3785,10.84643 0.9701,17.0319 5.91131,27.11277 2.20997,4.50871 3.808,8.40778 3.55118,8.6646 -0.94516,0.94516 -14.67163,-11.8224 -15.26894,-14.20228 -0.33975,-1.35366 -1.01894,-2.4612 -1.50932,-2.4612 -1.4653,0 -1.00937,13.9026 0.67638,20.62432 1.65435,6.59658 1.61691,12.49763 -0.0828,13.05362 -0.55818,0.18259 -1.88246,-3.30957 -2.94285,-7.76035 l -1.92799,-8.09233 -3.41018,6.83737 c -3.93806,7.89576 -8.33962,12.99036 -12.92199,14.95661 -5.03622,2.16099 -14.77387,1.67308 -23.08019,-1.15645 z M 588.8787,388.02754 c 4.01654,-6.02971 56.99191,-69 58.04802,-69 0.64775,0 -7.78767,10.74422 -18.12992,23.09214 -4.41875,5.27567 -9.83409,11.77264 -12.03409,14.4377 -13.05144,15.81039 -30.78359,35.82308 -27.88401,31.47016 z m -354.41132,-112.25 c -3.40393,-5.64872 -5.49232,-13.54965 -4.77206,-18.05393 1.06872,-6.68343 4.01211,-12.18977 7.75126,-14.50069 4.61793,-2.85404 17.61006,-5.64422 22.23847,-4.77593 4.31363,0.80924 3.81469,2.5764 -0.73136,2.59032 -3.98046,0.0122 -12.46726,3.93815 -15.39213,7.12034 -4.61409,5.02002 -6.70091,11.70163 -6.75159,21.61736 -0.026,5.08611 -0.12306,9.24861 -0.2157,9.25 -0.0926,10e-4 -1.04975,-1.45997 -2.12689,-3.24747 z m 627.74223,-3.40869 C 844.7643,260.38747 820.76457,248.91451 799.9466,242.6043 c -12.26393,-3.71737 -38.54182,-8.97349 -50.68389,-10.13784 -18.4719,-1.77133 -7.51535,-2.31641 47.75,-2.37553 35.60414,-0.0381 59.25,-0.43271 59.25,-0.98881 0,-0.50897 -2.9554,-9.46208 -6.5675,-19.89578 l -6.56759,-18.97038 6.43779,-13.48383 c 5.9573,-12.47762 6.7022,-13.57111 9.9819,-14.65349 l 3.5441,-1.16966 0.6372,-8.70072 c 0.3505,-4.7854 0.7266,-9.60072 0.8357,-10.70072 0.1567,-1.57961 0.9312,-2 3.6847,-2 2.3409,0 3.5538,0.4928 3.6918,1.5 0.1131,0.825 0.5005,5.47853 0.8611,10.34117 0.6504,8.77152 0.6829,8.8573 4.1252,10.88831 2.7785,1.63935 4.6515,4.42553 9.4026,13.98678 3.2632,6.5668 5.933,12.70612 5.933,13.64293 0,0.93681 -2.7,9.77517 -6,19.64081 -3.3,9.86564 -6,18.51059 -6,19.21101 0,1.01453 12.3539,1.32591 60.75,1.53124 l 60.74999,0.25775 -16.49999,2.3353 c -21.5113,3.04457 -31.9613,5.23492 -46,9.64172 -6.325,1.98545 -13.5472,4.20079 -16.0494,4.923 -11.4307,3.29931 -32.9106,14.32089 -47.0037,24.11822 l -7.5531,5.25079 z m -455.026,-4.84131 c 1.70448,-3.3 3.62621,-8.53382 4.2705,-11.63071 1.01737,-4.89021 0.93171,-6.25841 -0.65135,-10.4036 -4.12139,-10.7917 -13.10302,-16.46779 -27.30892,-17.25833 -4.57603,-0.25464 -11.05167,0.09 -14.5,0.7718 -3.42712,0.67756 -7.35613,1.41986 -8.73113,1.64954 -1.375,0.22968 -4.975,0.91931 -8,1.5325 -6.45056,1.30757 -14.01834,1.22046 -15.41626,-0.17746 -0.54106,-0.54106 -1.68124,-0.98802 -2.53374,-0.99324 -0.8525,-0.005 -4.34061,-1.77995 -7.75136,-3.94383 -12.40476,-7.86996 -22.37814,-9.13636 -32.8684,-4.17359 -3.33836,1.57933 -7.65086,4.25974 -9.58333,5.95647 -2.69887,2.36964 -3.51358,2.70042 -3.51358,1.42656 0,-2.79555 12.7584,-14.66464 19.09691,-17.76578 4.56035,-2.23117 7.6443,-2.95706 13.96152,-3.28621 9.96776,-0.51937 13.93296,0.50979 23.90911,6.20552 9.03943,5.16093 11.98527,5.99745 20.19913,5.73585 6.30712,-0.20088 19.27349,-2.37483 23.47283,-3.93549 2.44831,-0.90989 2.40866,-0.98637 -4,-7.71383 -11.52023,-12.09332 -28.07814,-23.18481 -40.97283,-27.44606 -15.30207,-5.05682 -28.55753,-4.87405 -40.85224,0.56325 -7.55646,3.34182 -11.54756,6.5743 -15.6636,12.68627 -4.11618,6.11217 -4.59785,5.00154 -0.83429,-1.92368 7.96168,-14.65007 23.1759,-23.37595 40.75772,-23.37595 15.44078,0 27.35549,5.42398 41.89965,19.07416 5.24051,4.91839 11.98584,12.20128 14.98962,16.18419 7.62581,10.11155 8.56397,10.79426 16.121,11.73146 8.44852,1.04776 18.51512,5.72593 21.82263,10.14146 5.10291,6.81238 6.21886,10.00823 6.2395,17.86873 0.0168,6.39144 -0.4,8.25717 -2.81978,12.62268 -1.56171,2.81747 -5.31423,7.54247 -8.33893,10.5 l -5.49945,5.37732 z m 266.52216,0.5 c 0.38034,-1.375 5.58293,-17.575 11.56133,-36 15.52599,-47.85001 15.75118,-48.67301 13.84079,-50.58339 -5.12262,-5.12262 -20.29762,11.23176 -38.37295,41.35524 -8.35251,13.91989 -8.6288,14.3281 -7.52566,11.1189 3.50915,-10.20871 24.79806,-49.07249 42.86645,-78.25447 l 10.44139,-16.86371 9.33398,0.40823 c 5.13369,0.22453 9.58368,0.65794 9.88887,0.96313 0.30519,0.30519 -1.75182,5.91016 -4.57113,12.45548 -2.81932,6.54532 -7.36216,17.07559 -10.09521,23.40059 -11.5096,26.63629 -24.07281,57.71053 -30.32224,75 -6.09169,16.85306 -8.83766,23.47868 -7.04562,17 z M 221.26271,212.30719 c 0,-1.93248 9.24738,-10.22403 14.099,-12.64169 9.52236,-4.7452 21.18437,-3.23562 30.62361,3.96404 2.95089,2.25075 7.16904,8.398 5.76258,8.398 -0.3114,0 -1.78545,-0.89221 -3.27568,-1.98269 -5.01476,-3.66958 -13.92837,-6.01731 -22.84582,-6.01731 -9.33255,0 -14.73595,1.62082 -20.61369,6.18335 -2.0625,1.60099 -3.75,2.54433 -3.75,2.0963 z"
         id="path2" />
    </g>
  </g>
</svg>
